PathFileType	4	(X/Y/Z)	 s04c0103.trc
DataRate	CameraRate	NumFrames	NumMarkers	Units	OrigDataRate	OrigDataStartFrame	OrigNumFrames
200	200	6	50	mm	200	1251	2000
Frame#	Time	racr			lacr			c7			jug			rlel			rdr			llel			ldr			s2			lic			ric			lasi			rasi			rpsi			lpsi			rgt			lgt			rth1			rth2			rth3			rth4			rlfc			rmfc			rsh1			rsh2			rsh3			rsh4			rlmal			rmmal			rcal			rtoe			rmt5			lth1			lth2			lth4			lth3			llfc			lmfc			lsh1			lsh2			lsh3			lsh4			llmal			lmmal			lcal			ltoe			lmt5			SBIKE			LBIKE			RBIKE			
		X1	Y1	Z1	X2	Y2	Z2	X3	Y3	Z3	X4	Y4	Z4	X5	Y5	Z5	X6	Y6	Z6	X7	Y7	Z7	X8	Y8	Z8	X9	Y9	Z9	X10	Y10	Z10	X11	Y11	Z11	X12	Y12	Z12	X13	Y13	Z13	X14	Y14	Z14	X15	Y15	Z15	X16	Y16	Z16	X17	Y17	Z17	X18	Y18	Z18	X19	Y19	Z19	X20	Y20	Z20	X21	Y21	Z21	X22	Y22	Z22	X23	Y23	Z23	X24	Y24	Z24	X25	Y25	Z25	X26	Y26	Z26	X27	Y27	Z27	X28	Y28	Z28	X29	Y29	Z29	X30	Y30	Z30	X31	Y31	Z31	X32	Y32	Z32	X33	Y33	Z33	X34	Y34	Z34	X35	Y35	Z35	X36	Y36	Z36	X37	Y37	Z37	X38	Y38	Z38	X39	Y39	Z39	X40	Y40	Z40	X41	Y41	Z41	X42	Y42	Z42	X43	Y43	Z43	X44	Y44	Z44	X45	Y45	Z45	X46	Y46	Z46	X47	Y47	Z47	X48	Y48	Z48	X49	Y49	Z49	X50	Y50	Z50	
1251	6.2550	498.043805	1339.641769	-96.648924	504.938356	1330.004913	-367.296685	485.826830	1395.934443	-232.254630	430.633509	1244.932578	-237.637729	467.520586	1061.605715	61.708745	689.334183	920.219211	-68.700964	483.595588	1087.756181	-538.100927	702.520873	917.846742	-456.296843	-71.568128	1162.040099	-290.116187	93.302221	1184.739603	-429.486672	58.936546	1187.000383	-109.219339	135.090186	1141.981730	-379.787286	116.177389	1151.050450	-149.328647	-53.914895	1209.940629	-243.054405	-46.892635	1211.331999	-318.595652	25.500447	1120.827137	-99.236190	70.978218	1085.125155	-459.722135	149.184755	1009.294040	-79.991245	225.601058	966.163552	-88.472558	271.377843	894.656274	-93.550795	248.545954	992.647742	-102.246349	365.460431	782.461757	-115.950656	347.033434	755.998408	-227.399857	332.762697	659.261703	-87.513477	336.168920	568.768123	-100.312646	293.118617	494.456862	-104.882964	367.353333	565.447911	-124.003342	270.535189	341.186749	-107.129896	289.068451	351.300864	-192.225482	202.680396	305.789506	-142.810914	502.607506	298.911494	-150.019071	440.230729	270.934416	-90.993865	134.694332	1023.121625	-468.688787	215.383211	991.597988	-470.870227	235.865047	1017.819554	-456.870590	271.195617	922.422930	-480.519510	367.897563	806.968065	-459.455111	397.657245	778.974791	-348.204415	298.705296	712.842244	-480.327021	249.364233	647.102087	-452.101858	169.206654	608.196451	-448.724312	268.970684	631.512094	-422.403108	56.627964	518.723180	-438.906767	54.071370	523.634991	-350.869936	-21.165070	549.833547	-396.498947	204.773366	346.743504	-404.163283	127.192323	365.280593	-465.391146	-177.055847	933.969433	-279.555852	-3.313210	85.565719	-484.785446	-15.053597	80.312865	-84.266822	
1252	6.2600	499.529649	1340.906023	-97.420614	504.904255	1331.885621	-368.196208	486.716709	1397.172444	-233.249243	431.306284	1246.235677	-238.223966	469.763365	1063.541984	62.350525	690.006784	920.409638	-68.788639	483.950439	1088.802088	-537.585836	702.972673	918.243520	-456.019000	-71.236485	1163.710180	-288.848642	92.952695	1186.886891	-428.395852	60.351653	1187.673426	-108.340154	134.944900	1144.194434	-379.052577	117.111461	1151.535322	-148.433146	-52.811655	1211.302890	-241.859651	-46.502425	1212.810445	-315.401940	26.163133	1121.258370	-98.439166	71.099439	1088.744469	-459.219564	147.898440	1007.533663	-78.239638	223.046325	961.938762	-87.668733	267.126019	889.337193	-92.389937	246.646919	987.972759	-100.987457	358.490766	775.343367	-114.470220	340.411362	748.697996	-225.740279	326.579931	651.754230	-85.757814	330.727691	561.246966	-98.672265	288.401073	486.579675	-103.119281	362.073156	558.153992	-122.273903	267.594268	332.937271	-105.423538	285.799837	343.029816	-190.587804	199.791815	298.344975	-140.547499	499.565861	287.741213	-150.743167	437.471834	260.476636	-91.236317	135.585597	1027.675092	-467.729841	216.748674	997.593535	-470.337521	236.867247	1024.098535	-456.167742	273.804817	929.548220	-480.747911	372.516182	815.120473	-460.193034	399.939886	786.303358	-349.767795	303.056405	721.431597	-481.255919	253.373567	656.005231	-452.799871	172.948120	617.436844	-449.134559	272.794239	640.231791	-422.943582	60.264502	528.480774	-439.322888	57.528642	533.647614	-351.103245	-17.987740	559.650358	-396.649693	208.727411	357.276211	-403.862843	131.093106	375.380513	-465.149850	-176.975933	934.044464	-279.381444	-3.313135	85.655189	-484.763212	-15.032662	80.318132	-84.246137	
1253	6.2650	501.054971	1342.229641	-98.233279	504.859325	1333.992161	-369.021121	487.506833	1398.543948	-234.480226	432.151417	1247.573885	-239.053656	472.152839	1065.683888	63.022965	690.792785	920.611439	-68.726702	484.376485	1089.970877	-536.583858	703.513168	918.681041	-455.742781	-70.227799	1165.117316	-287.371213	92.638640	1189.102163	-427.361868	61.405448	1188.324970	-107.225806	134.741619	1146.446211	-378.197035	118.034928	1152.025368	-147.439739	-51.522506	1212.074142	-240.453006	-46.365952	1212.700182	-312.022579	26.665860	1121.553523	-97.697456	71.311405	1092.757113	-458.831138	146.082676	1004.979401	-76.987053	220.163572	957.721286	-86.607276	262.245086	883.879826	-91.195611	244.457897	983.217531	-99.673875	351.049684	768.133977	-112.551123	332.654248	741.122889	-224.389658	319.736578	644.163941	-83.976546	324.596717	553.768008	-96.836032	282.959618	478.696468	-101.186036	356.016337	550.949699	-120.326012	264.058681	324.658082	-103.651796	282.209260	334.894487	-188.795679	196.161359	290.776659	-138.508329	495.839990	276.987789	-150.933014	433.979537	250.003112	-91.248104	136.509458	1032.642476	-467.077605	218.150819	1003.927478	-469.909531	237.822960	1030.656290	-455.495708	276.316778	937.026350	-481.027268	377.224227	823.870177	-460.786090	400.771162	793.899528	-352.430259	307.684999	730.279870	-481.969081	257.769903	664.883929	-453.309506	177.288518	626.678930	-449.591736	277.203093	649.337668	-423.512886	64.105532	538.110810	-439.212794	62.187057	543.629933	-351.603198	-14.004446	569.198370	-396.924972	213.264179	367.895570	-404.238393	135.637794	385.320514	-464.969779	-176.929256	934.106949	-279.236144	-3.303967	85.701693	-484.733010	-15.026159	80.362508	-84.225165	
1254	6.2700	502.574232	1343.592109	-99.098594	504.954231	1336.224021	-369.936953	488.203127	1400.097468	-235.819944	433.216915	1248.985028	-240.152729	474.804101	1067.961610	63.789445	691.528289	920.654666	-68.700647	484.872898	1091.194155	-535.297810	703.993157	919.316477	-455.151210	-70.458954	1166.619330	-286.466011	92.190496	1191.426041	-426.185579	62.445365	1189.059222	-106.090893	134.481205	1148.804968	-377.447611	118.957017	1152.401860	-146.584008	-50.881893	1213.295093	-238.912646	-45.476436	1215.663123	-311.577900	27.110297	1121.756797	-97.016142	71.559608	1097.036651	-458.504160	144.206673	1002.889772	-75.988733	216.954526	953.453084	-85.425067	257.064532	878.609915	-89.769661	241.943330	978.516295	-98.169517	343.329568	760.714812	-111.148163	324.569715	733.484226	-222.863777	312.404223	636.641809	-82.087094	318.018777	546.282677	-94.909926	276.919749	470.836864	-99.477027	349.491065	543.680663	-118.321993	259.901357	316.358898	-102.070805	277.988991	327.246547	-187.199574	191.805811	283.273025	-136.979030	491.442694	266.599035	-151.166249	429.444551	239.787187	-91.632475	137.423502	1037.875033	-466.654875	219.500558	1010.588623	-469.513119	238.715415	1037.521944	-454.925013	278.841785	944.805646	-481.414111	381.542736	832.713728	-461.025892	405.648363	802.945793	-352.903980	312.743239	739.212016	-482.657203	262.725931	673.967153	-453.783189	182.110896	635.821870	-449.919704	282.080658	658.482662	-423.926151	68.835486	547.531785	-439.328361	65.937477	553.287230	-351.688903	-9.216507	578.738494	-397.387811	218.502015	377.612493	-403.393041	140.857472	394.972486	-464.731830	-176.906547	934.177573	-279.045166	-3.277892	85.756084	-484.702396	-14.998513	80.366569	-84.191409	
1255	6.2750	504.057529	1344.978084	-99.951955	505.038934	1338.514479	-370.780966	488.742002	1401.769478	-237.156855	434.387413	1250.424532	-241.356849	477.551254	1070.244307	64.593372	692.246426	920.577966	-68.770606	485.363331	1092.495446	-533.906831	704.373255	920.000727	-454.754248	-70.370187	1168.712298	-285.402980	91.702914	1193.750506	-425.140032	63.554385	1189.727160	-104.982680	134.268595	1151.147315	-376.812843	119.941644	1152.868479	-145.747806	-50.542055	1214.931610	-237.243967	-44.513473	1218.737496	-312.640279	27.511362	1121.938998	-96.361150	71.905263	1101.551398	-458.313815	142.205407	1000.871225	-74.726873	213.416458	949.026286	-84.079083	250.964010	873.052141	-89.026908	239.005894	973.218607	-97.129223	335.351706	753.132070	-109.704286	316.173630	726.249111	-221.013577	304.653816	629.146547	-80.142547	310.883585	538.882436	-93.139770	270.477692	463.115624	-98.041655	342.408730	536.483215	-116.408955	254.749882	308.176733	-100.628730	272.992509	319.327182	-185.823173	186.886620	275.922718	-135.386247	486.307687	256.335643	-152.181315	424.464893	230.345475	-91.792412	138.293034	1043.327658	-466.337161	220.787713	1017.348706	-469.300187	239.589953	1044.537104	-454.506325	281.246380	952.765965	-481.706360	386.413147	842.123871	-461.676123	410.620716	812.401158	-353.453265	318.124639	748.339301	-483.183177	268.123482	683.188245	-454.137074	187.469265	644.962310	-450.222140	287.477568	667.848070	-424.202196	74.157338	556.682186	-439.360948	71.093758	562.481808	-351.933087	-4.165234	587.505535	-397.196752	224.128911	387.103911	-402.881375	146.648488	404.205505	-464.440926	-176.823082	934.234822	-278.886986	-3.252025	85.827623	-484.674492	-14.970597	80.370516	-84.158961	
1256	6.2800	505.383377	1346.392662	-100.834603	505.220276	1340.744180	-371.654120	489.165203	1403.403977	-238.440540	435.659140	1251.754196	-242.554872	480.390638	1072.573725	65.379746	692.917415	920.484648	-68.928364	485.940087	1093.892483	-532.636393	704.753704	920.760573	-454.187002	-70.502995	1170.834656	-283.050382	91.161509	1196.484264	-424.206572	64.755802	1190.495581	-103.937514	133.991556	1153.764484	-376.281685	120.933447	1153.386321	-144.933900	-49.633640	1216.517529	-235.792741	-44.064631	1221.165860	-311.130846	27.827470	1122.011141	-95.764544	72.304500	1106.053023	-458.147602	139.877869	998.397167	-74.095871	209.660009	944.737298	-82.772203	245.001943	867.662584	-87.644925	235.993430	968.254443	-95.393287	326.823168	745.759648	-108.113944	307.314221	719.434675	-219.060374	296.584173	621.720220	-78.399640	303.469823	531.633026	-91.587556	263.481884	455.450449	-96.789482	334.910169	529.495786	-114.759577	248.752248	300.433780	-99.409339	267.105343	311.803085	-184.714287	181.219357	268.808599	-133.947199	480.476262	246.832241	-152.639708	418.795893	221.104978	-91.994431	139.796684	1049.328533	-466.825211	222.046939	1024.295246	-469.207675	240.340077	1051.727419	-454.258227	283.646313	960.915326	-481.976917	391.263332	851.919933	-462.211908	415.710777	822.259969	-353.612957	323.758293	757.592996	-483.585754	273.892813	692.407509	-454.365728	193.360446	654.079892	-450.441547	293.217987	677.310652	-424.430491	80.412671	565.633016	-439.653672	76.897004	571.492738	-351.751338	1.775281	596.201828	-397.121602	230.721749	395.930652	-401.916551	152.988865	413.232513	-464.202211	-176.764162	934.317984	-278.832989	-3.240740	85.891781	-484.637907	-14.960045	80.387096	-84.144311	
